<?xml version="1.0" encoding="utf-8"?>
<!-- Generator: Adobe Illustrator 25.4.1, SVG Export Plug-In . SVG Version: 6.00 Build 0)  -->
<svg version="1.1" id="Layer_1" xmlns="http://www.w3.org/2000/svg" xmlns:xlink="http://www.w3.org/1999/xlink" x="0px" y="0px"
	 viewBox="0 0 200 200" style="enable-background:new 0 0 200 200;" xml:space="preserve">
<style type="text/css">
	.st0{fill-rule:evenodd;clip-rule:evenodd;fill:#E53E3E;stroke:#E0E0E0;stroke-width:0.8;}
	.st1{fill-rule:evenodd;clip-rule:evenodd;fill:#FFFFFF;}
</style>
<g transform="translate(.313 .58)">
	<path class="st0" d="M34.1-0.6h131.2c19,0,34.4,15.4,34.4,34.4V165c0,19-15.4,34.4-34.4,34.4H34.1c-19,0-34.4-15.4-34.4-34.4V33.8
		C-0.3,14.8,15.1-0.6,34.1-0.6z"/>
	<g transform="translate(3.208 3.21)">
		<ellipse class="st1" cx="41.3" cy="41" rx="20.7" ry="20.7"/>
		<ellipse class="st1" cx="151.6" cy="41" rx="20.7" ry="20.7"/>
		<ellipse class="st1" cx="41.3" cy="96.2" rx="20.7" ry="20.7"/>
		<ellipse class="st1" cx="151.6" cy="96.2" rx="20.7" ry="20.7"/>
		<ellipse class="st1" cx="41.3" cy="151.4" rx="20.7" ry="20.7"/>
		<ellipse class="st1" cx="151.6" cy="151.4" rx="20.7" ry="20.7"/>
	</g>
</g>
</svg>
